<svg width="200" height="200" viewBox="0 0 200 200" fill="none" xmlns="http://www.w3.org/2000/svg">
  <rect width="200" height="200" rx="40" fill="#0A84FF"/>
  <path d="M50 100C50 72.3858 72.3858 50 100 50V50C127.614 50 150 72.3858 150 100V100C150 127.614 127.614 150 100 150V150C72.3858 150 50 127.614 50 100V100Z" stroke="white" stroke-width="10"/>
  <path d="M70 95C70 89.4772 74.4772 85 80 85H120C125.523 85 130 89.4772 130 95V115C130 120.523 125.523 125 120 125H80C74.4772 125 70 120.523 70 115V95Z" fill="white"/>
  <path d="M75 80L95 60H105L125 80" stroke="white" stroke-width="8" stroke-linecap="round"/>
  <path d="M85 105H115" stroke="#0A84FF" stroke-width="8" stroke-linecap="round"/>
</svg>